<svg xmlns="http://www.w3.org/2000/svg" viewBox="0 0 368.67 49.16">
  <g id="Capa_2" data-name="Capa 2">
    <g id="Capa_1-2" data-name="Capa 1">
      <g>
        <polygon points="0 28.84 44.48 49.16 0 49.16 0 28.84"/>
        <polygon points="0 0.02 44.48 0.02 0 20.18 0 0.02"/>
        <path d="M75.79,22c-.85-.86-2.25-1.29-4.23-1.29-2.37,0-4,.51-4.9,1.56s-1.32,2.64-1.32,4.85H77V25.58A5,5,0,0,0,75.79,22Zm0,0c-.85-.86-2.25-1.29-4.23-1.29-2.37,0-4,.51-4.9,1.56s-1.32,2.64-1.32,4.85H77V25.58A5,5,0,0,0,75.79,22Zm0,0c-.85-.86-2.25-1.29-4.23-1.29-2.37,0-4,.51-4.9,1.56s-1.32,2.64-1.32,4.85H77V25.58A5,5,0,0,0,75.79,22Zm18.69,7.57a5.05,5.05,0,0,0-3.23.86,3.22,3.22,0,0,0-1,2.64,2.71,2.71,0,0,0,1.17,2.48,6,6,0,0,0,3.3.74,9.81,9.81,0,0,0,4-.78,7.43,7.43,0,0,0,2.76-2.05V29.58Zm0,0a5.05,5.05,0,0,0-3.23.86,3.22,3.22,0,0,0-1,2.64,2.71,2.71,0,0,0,1.17,2.48,6,6,0,0,0,3.3.74,9.81,9.81,0,0,0,4-.78,7.43,7.43,0,0,0,2.76-2.05V29.58ZM75.79,22c-.85-.86-2.25-1.29-4.23-1.29-2.37,0-4,.51-4.9,1.56s-1.32,2.64-1.32,4.85H77V25.58A5,5,0,0,0,75.79,22Zm0,0c-.85-.86-2.25-1.29-4.23-1.29-2.37,0-4,.51-4.9,1.56s-1.32,2.64-1.32,4.85H77V25.58A5,5,0,0,0,75.79,22Zm18.69,7.57a5.05,5.05,0,0,0-3.23.86,3.22,3.22,0,0,0-1,2.64,2.71,2.71,0,0,0,1.17,2.48,6,6,0,0,0,3.3.74,9.81,9.81,0,0,0,4-.78,7.43,7.43,0,0,0,2.76-2.05V29.58Zm48.83-6.64c-1-1.13-2.64-1.71-5-1.71s-3.93.58-4.9,1.71S132,25.89,132,28.42s.46,4.39,1.47,5.51,2.6,1.71,4.9,1.71,4-.54,5-1.71,1.47-2.95,1.47-5.51S144.28,24,143.31,22.94Zm0,0c-1-1.13-2.64-1.71-5-1.71s-3.93.58-4.9,1.71S132,25.89,132,28.42s.46,4.39,1.47,5.51,2.6,1.71,4.9,1.71,4-.54,5-1.71,1.47-2.95,1.47-5.51S144.28,24,143.31,22.94ZM94.48,29.58a5.05,5.05,0,0,0-3.23.86,3.22,3.22,0,0,0-1,2.64,2.71,2.71,0,0,0,1.17,2.48,6,6,0,0,0,3.3.74,9.81,9.81,0,0,0,4-.78,7.43,7.43,0,0,0,2.76-2.05V29.58ZM75.79,22c-.85-.86-2.25-1.29-4.23-1.29-2.37,0-4,.51-4.9,1.56s-1.32,2.64-1.32,4.85H77V25.58A5,5,0,0,0,75.79,22Zm0,0c-.85-.86-2.25-1.29-4.23-1.29-2.37,0-4,.51-4.9,1.56s-1.32,2.64-1.32,4.85H77V25.58A5,5,0,0,0,75.79,22Zm18.69,7.57a5.05,5.05,0,0,0-3.23.86,3.22,3.22,0,0,0-1,2.64,2.71,2.71,0,0,0,1.17,2.48,6,6,0,0,0,3.3.74,9.81,9.81,0,0,0,4-.78,7.43,7.43,0,0,0,2.76-2.05V29.58Zm48.83-6.64c-1-1.13-2.64-1.71-5-1.71s-3.93.58-4.9,1.71S132,25.89,132,28.42s.46,4.39,1.47,5.51,2.6,1.71,4.9,1.71,4-.54,5-1.71,1.47-2.95,1.47-5.51S144.28,24,143.31,22.94Zm0,0c-1-1.13-2.64-1.71-5-1.71s-3.93.58-4.9,1.71S132,25.89,132,28.42s.46,4.39,1.47,5.51,2.6,1.71,4.9,1.71,4-.54,5-1.71,1.47-2.95,1.47-5.51S144.28,24,143.31,22.94ZM94.48,29.58a5.05,5.05,0,0,0-3.23.86,3.22,3.22,0,0,0-1,2.64,2.71,2.71,0,0,0,1.17,2.48,6,6,0,0,0,3.3.74,9.81,9.81,0,0,0,4-.78,7.43,7.43,0,0,0,2.76-2.05V29.58ZM75.79,22c-.85-.86-2.25-1.29-4.23-1.29-2.37,0-4,.51-4.9,1.56s-1.32,2.64-1.32,4.85H77V25.58A5,5,0,0,0,75.79,22Zm0,0c-.85-.86-2.25-1.29-4.23-1.29-2.37,0-4,.51-4.9,1.56s-1.32,2.64-1.32,4.85H77V25.58A5,5,0,0,0,75.79,22Zm18.69,7.57a5.05,5.05,0,0,0-3.23.86,3.22,3.22,0,0,0-1,2.64,2.71,2.71,0,0,0,1.17,2.48,6,6,0,0,0,3.3.74,9.81,9.81,0,0,0,4-.78,7.43,7.43,0,0,0,2.76-2.05V29.58Zm48.83-6.64c-1-1.13-2.64-1.71-5-1.71s-3.93.58-4.9,1.71S132,25.89,132,28.42s.46,4.39,1.47,5.51,2.6,1.71,4.9,1.71,4-.54,5-1.71,1.47-2.95,1.47-5.51S144.28,24,143.31,22.94Zm0,0c-1-1.13-2.64-1.71-5-1.71s-3.93.58-4.9,1.71S132,25.89,132,28.42s.46,4.39,1.47,5.51,2.6,1.71,4.9,1.71,4-.54,5-1.71,1.47-2.95,1.47-5.51S144.28,24,143.31,22.94ZM94.48,29.58a5.05,5.05,0,0,0-3.23.86,3.22,3.22,0,0,0-1,2.64,2.71,2.71,0,0,0,1.17,2.48,6,6,0,0,0,3.3.74,9.81,9.81,0,0,0,4-.78,7.43,7.43,0,0,0,2.76-2.05V29.58ZM75.79,22c-.85-.86-2.25-1.29-4.23-1.29-2.37,0-4,.51-4.9,1.56s-1.32,2.64-1.32,4.85H77V25.58A5,5,0,0,0,75.79,22Zm0,0c-.85-.86-2.25-1.29-4.23-1.29-2.37,0-4,.51-4.9,1.56s-1.32,2.64-1.32,4.85H77V25.58A5,5,0,0,0,75.79,22Zm18.69,7.57a5.05,5.05,0,0,0-3.23.86,3.22,3.22,0,0,0-1,2.64,2.71,2.71,0,0,0,1.17,2.48,6,6,0,0,0,3.3.74,9.81,9.81,0,0,0,4-.78,7.43,7.43,0,0,0,2.76-2.05V29.58Zm48.83-6.64c-1-1.13-2.64-1.71-5-1.71s-3.93.58-4.9,1.71S132,25.89,132,28.42s.46,4.39,1.47,5.51,2.6,1.71,4.9,1.71,4-.54,5-1.71,1.47-2.95,1.47-5.51S144.28,24,143.31,22.94Zm35.27-2.18a5.72,5.72,0,0,0-4.85,2.18c-1.09,1.4-1.64,3.49-1.64,6.21s.51,4.47,1.52,5.48a6.7,6.7,0,0,0,4.78,1.48,7.64,7.64,0,0,0,5.67-2.33v-11A7.79,7.79,0,0,0,178.58,20.76Zm0,0a5.72,5.72,0,0,0-4.85,2.18c-1.09,1.4-1.64,3.49-1.64,6.21s.51,4.47,1.52,5.48a6.7,6.7,0,0,0,4.78,1.48,7.64,7.64,0,0,0,5.67-2.33v-11A7.79,7.79,0,0,0,178.58,20.76Zm-35.27,2.18c-1-1.13-2.64-1.71-5-1.71s-3.93.58-4.9,1.71S132,25.89,132,28.42s.46,4.39,1.47,5.51,2.6,1.71,4.9,1.71,4-.54,5-1.71,1.47-2.95,1.47-5.51S144.28,24,143.31,22.94ZM94.48,29.58a5.05,5.05,0,0,0-3.23.86,3.22,3.22,0,0,0-1,2.64,2.71,2.71,0,0,0,1.17,2.48,6,6,0,0,0,3.3.74,9.81,9.81,0,0,0,4-.78,7.43,7.43,0,0,0,2.76-2.05V29.58ZM75.79,22c-.85-.86-2.25-1.29-4.23-1.29-2.37,0-4,.51-4.9,1.56s-1.32,2.64-1.32,4.85H77V25.58A5,5,0,0,0,75.79,22Zm0,0c-.85-.86-2.25-1.29-4.23-1.29-2.37,0-4,.51-4.9,1.56s-1.32,2.64-1.32,4.85H77V25.58A5,5,0,0,0,75.79,22Zm18.69,7.57a5.05,5.05,0,0,0-3.23.86,3.22,3.22,0,0,0-1,2.64,2.71,2.71,0,0,0,1.17,2.48,6,6,0,0,0,3.3.74,9.81,9.81,0,0,0,4-.78,7.43,7.43,0,0,0,2.76-2.05V29.58Zm48.83-6.64c-1-1.13-2.64-1.71-5-1.71s-3.93.58-4.9,1.71S132,25.89,132,28.42s.46,4.39,1.47,5.51,2.6,1.71,4.9,1.71,4-.54,5-1.71,1.47-2.95,1.47-5.51S144.28,24,143.31,22.94Zm35.27-2.18a5.72,5.72,0,0,0-4.85,2.18c-1.09,1.4-1.64,3.49-1.64,6.21s.51,4.47,1.52,5.48a6.7,6.7,0,0,0,4.78,1.48,7.64,7.64,0,0,0,5.67-2.33v-11A7.79,7.79,0,0,0,178.58,20.76Zm24.24,8.82a5.17,5.17,0,0,0-3.26.86,3.34,3.34,0,0,0-1,2.64,2.73,2.73,0,0,0,1.16,2.48,6,6,0,0,0,3.31.74,9.55,9.55,0,0,0,4-.78,7.66,7.66,0,0,0,2.8-2.05V29.58Zm0,0a5.17,5.17,0,0,0-3.26.86,3.34,3.34,0,0,0-1,2.64,2.73,2.73,0,0,0,1.16,2.48,6,6,0,0,0,3.31.74,9.55,9.55,0,0,0,4-.78,7.66,7.66,0,0,0,2.8-2.05V29.58Zm-24.24-8.82a5.72,5.72,0,0,0-4.85,2.18c-1.09,1.4-1.64,3.49-1.64,6.21s.51,4.47,1.52,5.48a6.7,6.7,0,0,0,4.78,1.48,7.64,7.64,0,0,0,5.67-2.33v-11A7.79,7.79,0,0,0,178.58,20.76Zm-35.27,2.18c-1-1.13-2.64-1.71-5-1.71s-3.93.58-4.9,1.71S132,25.89,132,28.42s.46,4.39,1.47,5.51,2.6,1.71,4.9,1.71,4-.54,5-1.71,1.47-2.95,1.47-5.51S144.28,24,143.31,22.94ZM94.48,29.58a5.05,5.05,0,0,0-3.23.86,3.22,3.22,0,0,0-1,2.64,2.71,2.71,0,0,0,1.17,2.48,6,6,0,0,0,3.3.74,9.81,9.81,0,0,0,4-.78,7.43,7.43,0,0,0,2.76-2.05V29.58ZM75.79,22c-.85-.86-2.25-1.29-4.23-1.29-2.37,0-4,.51-4.9,1.56s-1.32,2.64-1.32,4.85H77V25.58A5,5,0,0,0,75.79,22ZM44.48,0V5.15L2.53,24.57,44.48,44v5.17H251.85V0Zm13,39.35a8.36,8.36,0,0,1-1.67.47,15.5,15.5,0,0,1-1.91.11,5.76,5.76,0,0,1-4.12-1.36c-.93-.89-1.39-2.33-1.39-4.39V8.06h5.08V33.74a2.59,2.59,0,0,0,.47,1.78,1.87,1.87,0,0,0,1.4.47,7.85,7.85,0,0,0,2.14-.31Zm24.08-8.93H65.34c.23,2.13,1,3.61,2.33,4.42s3.3,1.21,6,1.21a21.52,21.52,0,0,0,3.42-.31,18.1,18.1,0,0,0,3.11-.86v3.73a13.87,13.87,0,0,1-3.42,1,23,23,0,0,1-4.15.35c-3.85,0-6.84-1-8.94-2.87s-3.18-4.78-3.18-8.7c0-3.54.89-6.34,2.71-8.39s4.55-3.07,8.2-3.07c3.34,0,5.87.85,7.58,2.64a9.26,9.26,0,0,1,2.56,6.76Zm24.79,9.05H102l-.31-2.26a9.09,9.09,0,0,1-3.34,2,15.05,15.05,0,0,1-5,.7,10,10,0,0,1-3.88-.77,6.07,6.07,0,0,1-3.93-6,6.5,6.5,0,0,1,2.14-5.12c1.48-1.29,3.69-1.95,6.72-1.95h7.07v-1a5.17,5.17,0,0,0-.51-2.52,2.73,2.73,0,0,0-1.74-1.32,11.8,11.8,0,0,0-3.77-.43A22.48,22.48,0,0,0,88.15,22V18.28a17.31,17.31,0,0,1,3.61-1,28.23,28.23,0,0,1,4.62-.35c3.23,0,5.71.66,7.38,1.94s2.57,3.46,2.57,6.41ZM125,20.76a34.15,34.15,0,0,0-5.67,1.67,16,16,0,0,0-2.29,1.09v16H112V17.38h4.66l.27,2.57a19.2,19.2,0,0,1,3.77-1.87A18.49,18.49,0,0,1,125,16.92ZM147.15,37c-1.86,2-4.77,3-8.81,3s-6.88-1-8.74-3-2.76-4.85-2.76-8.54.93-6.53,2.79-8.51,4.78-3,8.71-3,6.91,1,8.78,3,2.79,4.82,2.79,8.51S149,35,147.15,37Zm16.79,2.41a8,8,0,0,1-1.71.47,14.83,14.83,0,0,1-1.87.11,5.72,5.72,0,0,1-4.12-1.36c-.93-.89-1.39-2.33-1.39-4.39V8.06h5.09V33.74a2.59,2.59,0,0,0,.46,1.78,1.87,1.87,0,0,0,1.4.47,8.08,8.08,0,0,0,2.14-.31Zm25.21.12h-4.31l-.35-2.22a9.31,9.31,0,0,1-3.27,2A12.08,12.08,0,0,1,177,40a12.43,12.43,0,0,1-5.25-1.05,7.31,7.31,0,0,1-3.57-3.38,14,14,0,0,1-1.24-6.4,15,15,0,0,1,1.36-6.69,9.34,9.34,0,0,1,3.73-4.11,10.59,10.59,0,0,1,5.43-1.4,12.54,12.54,0,0,1,3.58.46,10.06,10.06,0,0,1,3,1.44V8.06h5.09Zm25.52,0h-4.35L210,37.23a9.43,9.43,0,0,1-3.34,2,15.05,15.05,0,0,1-5,.7,10,10,0,0,1-3.89-.77,6.2,6.2,0,0,1-2.87-2.26,6.38,6.38,0,0,1-1.05-3.73A6.53,6.53,0,0,1,196,28.07c1.44-1.29,3.7-1.95,6.69-1.95h7.11v-1a5.17,5.17,0,0,0-.51-2.52,2.72,2.72,0,0,0-1.75-1.32,11.89,11.89,0,0,0-3.77-.43,22.48,22.48,0,0,0-7.3,1.16V18.28a16.79,16.79,0,0,1,3.61-1,28.27,28.27,0,0,1,4.63-.35c3.22,0,5.71.66,7.38,1.94s2.56,3.46,2.56,6.41Zm26.88,0H236.5V25.39c0-1.71-.35-2.92-1.05-3.58s-2-1-3.92-1a8.63,8.63,0,0,0-3.38.7,8.81,8.81,0,0,0-2.76,1.83v16.2H220.3V17.38H225l.23,2.33a13.9,13.9,0,0,1,3.57-2,12.46,12.46,0,0,1,4.59-.81c2.83,0,4.93.66,6.25,2s1.94,3.42,1.94,6.25Zm9.06,0h-4.32v-4h4.32Zm-51.05-9a3.34,3.34,0,0,0-1,2.64,2.73,2.73,0,0,0,1.16,2.48,6,6,0,0,0,3.31.74,9.55,9.55,0,0,0,4-.78,7.66,7.66,0,0,0,2.8-2.05V29.58h-7A5.17,5.17,0,0,0,199.56,30.44Zm-25.83-7.5c-1.09,1.4-1.64,3.49-1.64,6.21s.51,4.47,1.52,5.48a6.7,6.7,0,0,0,4.78,1.48,7.64,7.64,0,0,0,5.67-2.33v-11a7.79,7.79,0,0,0-5.48-2A5.72,5.72,0,0,0,173.73,22.94Zm-35.39-1.71c-2.3,0-3.93.58-4.9,1.71S132,25.89,132,28.42s.46,4.39,1.47,5.51,2.6,1.71,4.9,1.71,4-.54,5-1.71,1.47-2.95,1.47-5.51-.5-4.39-1.47-5.48S140.67,21.23,138.34,21.23ZM91.25,30.44a3.22,3.22,0,0,0-1,2.64,2.71,2.71,0,0,0,1.17,2.48,6,6,0,0,0,3.3.74,9.81,9.81,0,0,0,4-.78,7.43,7.43,0,0,0,2.76-2.05V29.58h-7A5.05,5.05,0,0,0,91.25,30.44ZM71.56,20.72c-2.37,0-4,.51-4.9,1.56s-1.32,2.64-1.32,4.85H77V25.58A5,5,0,0,0,75.79,22C74.94,21.15,73.54,20.72,71.56,20.72ZM75.79,22c-.85-.86-2.25-1.29-4.23-1.29-2.37,0-4,.51-4.9,1.56s-1.32,2.64-1.32,4.85H77V25.58A5,5,0,0,0,75.79,22Zm18.69,7.57a5.05,5.05,0,0,0-3.23.86,3.22,3.22,0,0,0-1,2.64,2.71,2.71,0,0,0,1.17,2.48,6,6,0,0,0,3.3.74,9.81,9.81,0,0,0,4-.78,7.43,7.43,0,0,0,2.76-2.05V29.58Zm48.83-6.64c-1-1.13-2.64-1.71-5-1.71s-3.93.58-4.9,1.71S132,25.89,132,28.42s.46,4.39,1.47,5.51,2.6,1.71,4.9,1.71,4-.54,5-1.71,1.47-2.95,1.47-5.51S144.28,24,143.31,22.94Zm35.27-2.18a5.72,5.72,0,0,0-4.85,2.18c-1.09,1.4-1.64,3.49-1.64,6.21s.51,4.47,1.52,5.48a6.7,6.7,0,0,0,4.78,1.48,7.64,7.64,0,0,0,5.67-2.33v-11A7.79,7.79,0,0,0,178.58,20.76Zm24.24,8.82a5.17,5.17,0,0,0-3.26.86,3.34,3.34,0,0,0-1,2.64,2.73,2.73,0,0,0,1.16,2.48,6,6,0,0,0,3.31.74,9.55,9.55,0,0,0,4-.78,7.66,7.66,0,0,0,2.8-2.05V29.58Zm0,0a5.17,5.17,0,0,0-3.26.86,3.34,3.34,0,0,0-1,2.64,2.73,2.73,0,0,0,1.16,2.48,6,6,0,0,0,3.31.74,9.55,9.55,0,0,0,4-.78,7.66,7.66,0,0,0,2.8-2.05V29.58Zm-24.24-8.82a5.72,5.72,0,0,0-4.85,2.18c-1.09,1.4-1.64,3.49-1.64,6.21s.51,4.47,1.52,5.48a6.7,6.7,0,0,0,4.78,1.48,7.64,7.64,0,0,0,5.67-2.33v-11A7.79,7.79,0,0,0,178.58,20.76Zm-35.27,2.18c-1-1.13-2.64-1.71-5-1.71s-3.93.58-4.9,1.71S132,25.89,132,28.42s.46,4.39,1.47,5.51,2.6,1.71,4.9,1.71,4-.54,5-1.71,1.47-2.95,1.47-5.51S144.28,24,143.31,22.94ZM94.48,29.58a5.05,5.05,0,0,0-3.23.86,3.22,3.22,0,0,0-1,2.64,2.71,2.71,0,0,0,1.17,2.48,6,6,0,0,0,3.3.74,9.81,9.81,0,0,0,4-.78,7.43,7.43,0,0,0,2.76-2.05V29.58ZM75.79,22c-.85-.86-2.25-1.29-4.23-1.29-2.37,0-4,.51-4.9,1.56s-1.32,2.64-1.32,4.85H77V25.58A5,5,0,0,0,75.79,22Zm0,0c-.85-.86-2.25-1.29-4.23-1.29-2.37,0-4,.51-4.9,1.56s-1.32,2.64-1.32,4.85H77V25.58A5,5,0,0,0,75.79,22Zm18.69,7.57a5.05,5.05,0,0,0-3.23.86,3.22,3.22,0,0,0-1,2.64,2.71,2.71,0,0,0,1.17,2.48,6,6,0,0,0,3.3.74,9.81,9.81,0,0,0,4-.78,7.43,7.43,0,0,0,2.76-2.05V29.58Zm48.83-6.64c-1-1.13-2.64-1.71-5-1.71s-3.93.58-4.9,1.71S132,25.89,132,28.42s.46,4.39,1.47,5.51,2.6,1.71,4.9,1.71,4-.54,5-1.71,1.47-2.95,1.47-5.51S144.28,24,143.31,22.94Zm0,0c-1-1.13-2.64-1.71-5-1.71s-3.93.58-4.9,1.71S132,25.89,132,28.42s.46,4.39,1.47,5.51,2.6,1.71,4.9,1.71,4-.54,5-1.71,1.47-2.95,1.47-5.51S144.28,24,143.31,22.94ZM94.48,29.58a5.05,5.05,0,0,0-3.23.86,3.22,3.22,0,0,0-1,2.64,2.71,2.71,0,0,0,1.17,2.48,6,6,0,0,0,3.3.74,9.81,9.81,0,0,0,4-.78,7.43,7.43,0,0,0,2.76-2.05V29.58ZM75.79,22c-.85-.86-2.25-1.29-4.23-1.29-2.37,0-4,.51-4.9,1.56s-1.32,2.64-1.32,4.85H77V25.58A5,5,0,0,0,75.79,22Zm0,0c-.85-.86-2.25-1.29-4.23-1.29-2.37,0-4,.51-4.9,1.56s-1.32,2.64-1.32,4.85H77V25.58A5,5,0,0,0,75.79,22Zm18.69,7.57a5.05,5.05,0,0,0-3.23.86,3.22,3.22,0,0,0-1,2.64,2.71,2.71,0,0,0,1.17,2.48,6,6,0,0,0,3.3.74,9.81,9.81,0,0,0,4-.78,7.43,7.43,0,0,0,2.76-2.05V29.58Zm48.83-6.64c-1-1.13-2.64-1.71-5-1.71s-3.93.58-4.9,1.71S132,25.89,132,28.42s.46,4.39,1.47,5.51,2.6,1.71,4.9,1.71,4-.54,5-1.71,1.47-2.95,1.47-5.51S144.28,24,143.31,22.94Zm0,0c-1-1.13-2.64-1.71-5-1.71s-3.93.58-4.9,1.71S132,25.89,132,28.42s.46,4.39,1.47,5.51,2.6,1.71,4.9,1.71,4-.54,5-1.71,1.47-2.95,1.47-5.51S144.28,24,143.31,22.94ZM94.48,29.58a5.05,5.05,0,0,0-3.23.86,3.22,3.22,0,0,0-1,2.64,2.71,2.71,0,0,0,1.17,2.48,6,6,0,0,0,3.3.74,9.81,9.81,0,0,0,4-.78,7.43,7.43,0,0,0,2.76-2.05V29.58ZM75.79,22c-.85-.86-2.25-1.29-4.23-1.29-2.37,0-4,.51-4.9,1.56s-1.32,2.64-1.32,4.85H77V25.58A5,5,0,0,0,75.79,22Zm0,0c-.85-.86-2.25-1.29-4.23-1.29-2.37,0-4,.51-4.9,1.56s-1.32,2.64-1.32,4.85H77V25.58A5,5,0,0,0,75.79,22Zm18.69,7.57a5.05,5.05,0,0,0-3.23.86,3.22,3.22,0,0,0-1,2.64,2.71,2.71,0,0,0,1.17,2.48,6,6,0,0,0,3.3.74,9.81,9.81,0,0,0,4-.78,7.43,7.43,0,0,0,2.76-2.05V29.58Zm48.83-6.64c-1-1.13-2.64-1.71-5-1.71s-3.93.58-4.9,1.71S132,25.89,132,28.42s.46,4.39,1.47,5.51,2.6,1.71,4.9,1.71,4-.54,5-1.71,1.47-2.95,1.47-5.51S144.28,24,143.31,22.94Zm0,0c-1-1.13-2.64-1.71-5-1.71s-3.93.58-4.9,1.71S132,25.89,132,28.42s.46,4.39,1.47,5.51,2.6,1.71,4.9,1.71,4-.54,5-1.71,1.47-2.95,1.47-5.51S144.28,24,143.31,22.94ZM94.48,29.58a5.05,5.05,0,0,0-3.23.86,3.22,3.22,0,0,0-1,2.64,2.71,2.71,0,0,0,1.17,2.48,6,6,0,0,0,3.3.74,9.81,9.81,0,0,0,4-.78,7.43,7.43,0,0,0,2.76-2.05V29.58ZM75.79,22c-.85-.86-2.25-1.29-4.23-1.29-2.37,0-4,.51-4.9,1.56s-1.32,2.64-1.32,4.85H77V25.58A5,5,0,0,0,75.79,22Zm0,0c-.85-.86-2.25-1.29-4.23-1.29-2.37,0-4,.51-4.9,1.56s-1.32,2.64-1.32,4.85H77V25.58A5,5,0,0,0,75.79,22Zm18.69,7.57a5.05,5.05,0,0,0-3.23.86,3.22,3.22,0,0,0-1,2.64,2.71,2.71,0,0,0,1.17,2.48,6,6,0,0,0,3.3.74,9.81,9.81,0,0,0,4-.78,7.43,7.43,0,0,0,2.76-2.05V29.58Zm48.83-6.64c-1-1.13-2.64-1.71-5-1.71s-3.93.58-4.9,1.71S132,25.89,132,28.42s.46,4.39,1.47,5.51,2.6,1.71,4.9,1.71,4-.54,5-1.71,1.47-2.95,1.47-5.51S144.28,24,143.31,22.94Zm0,0c-1-1.13-2.64-1.71-5-1.71s-3.93.58-4.9,1.71S132,25.89,132,28.42s.46,4.39,1.47,5.51,2.6,1.71,4.9,1.71,4-.54,5-1.71,1.47-2.95,1.47-5.51S144.28,24,143.31,22.94ZM94.48,29.58a5.05,5.05,0,0,0-3.23.86,3.22,3.22,0,0,0-1,2.64,2.71,2.71,0,0,0,1.17,2.48,6,6,0,0,0,3.3.74,9.81,9.81,0,0,0,4-.78,7.43,7.43,0,0,0,2.76-2.05V29.58ZM75.79,22c-.85-.86-2.25-1.29-4.23-1.29-2.37,0-4,.51-4.9,1.56s-1.32,2.64-1.32,4.85H77V25.58A5,5,0,0,0,75.79,22Zm0,0c-.85-.86-2.25-1.29-4.23-1.29-2.37,0-4,.51-4.9,1.56s-1.32,2.64-1.32,4.85H77V25.58A5,5,0,0,0,75.79,22Zm18.69,7.57a5.05,5.05,0,0,0-3.23.86,3.22,3.22,0,0,0-1,2.64,2.71,2.71,0,0,0,1.17,2.48,6,6,0,0,0,3.3.74,9.81,9.81,0,0,0,4-.78,7.43,7.43,0,0,0,2.76-2.05V29.58Zm0,0a5.05,5.05,0,0,0-3.23.86,3.22,3.22,0,0,0-1,2.64,2.71,2.71,0,0,0,1.17,2.48,6,6,0,0,0,3.3.74,9.81,9.81,0,0,0,4-.78,7.43,7.43,0,0,0,2.76-2.05V29.58ZM75.79,22c-.85-.86-2.25-1.29-4.23-1.29-2.37,0-4,.51-4.9,1.56s-1.32,2.64-1.32,4.85H77V25.58A5,5,0,0,0,75.79,22Z"/>
        <g>
          <path d="M262.68,40.41a12.8,12.8,0,0,1-5.27-1,7.38,7.38,0,0,1-3.54-3.4,13.74,13.74,0,0,1-1.26-6.39A15,15,0,0,1,254,22.9a9.47,9.47,0,0,1,3.75-4.12,10.51,10.51,0,0,1,5.43-1.4,12.52,12.52,0,0,1,3.57.46,11.11,11.11,0,0,1,3,1.45V8.52h5.08V39.94h-4.34l-.32-2.19a10,10,0,0,1-3.27,2A12,12,0,0,1,262.68,40.41ZM264,36.58a7.63,7.63,0,0,0,5.69-2.33v-11a8,8,0,0,0-5.5-1.95,5.71,5.71,0,0,0-4.85,2.14q-1.64,2.14-1.63,6.25t1.51,5.45C260.26,36.09,261.85,36.58,264,36.58Z"/>
          <path d="M291.39,40.41q-5.77,0-8.95-2.85t-3.17-8.72q0-5.31,2.71-8.39t8.2-3.07c3.36,0,5.88.87,7.58,2.63a9.39,9.39,0,0,1,2.54,6.78V30.9H284.12c.25,2.14,1,3.62,2.33,4.42a11.58,11.58,0,0,0,6,1.22,18.81,18.81,0,0,0,3.45-.33,17.06,17.06,0,0,0,3.07-.84V39.1a14.85,14.85,0,0,1-3.42,1A25.7,25.7,0,0,1,291.39,40.41Zm-7.27-12.83h11.7V26.05a4.88,4.88,0,0,0-1.26-3.57c-.84-.85-2.25-1.28-4.24-1.28-2.36,0-4,.51-4.87,1.54S284.12,25.38,284.12,27.58Z"/>
          <path d="M310.46,39.94l-8.72-22.1H307L313.21,35l6.2-17.16h5.22L316,39.94Z"/>
        </g>
        <path d="M324.19,0l44.48,20.3v8.64l-44.48,20.2V44l42-19.41-42-19.41Z"/>
      </g>
    </g>
  </g>
</svg>
