<svg xmlns="http://www.w3.org/2000/svg" viewBox="0 0 368.67 49.16">
  <defs>
    <style>
      .cls-1 {
        fill: #fff;
      }
    </style>
  </defs>
  <g id="Capa_2" data-name="Capa 2">
    <g id="Capa_1-2" data-name="Capa 1">
      <g>
        <rect x="251.47" y="0.02" width="117.21" height="49.14"/>
        <polygon class="cls-1" points="0 28.86 44.48 49.14 0 49.14 0 28.86"/>
        <polygon class="cls-1" points="0 0 44.48 0 0 20.2 0 0"/>
        <path class="cls-1" d="M75.79,22c-.85-.86-2.25-1.29-4.23-1.29-2.37,0-4,.51-4.9,1.56a7.46,7.46,0,0,0-1.32,4.82H77V25.6A4.8,4.8,0,0,0,75.79,22ZM94.48,29.6a4.82,4.82,0,0,0-3.23.86,3.35,3.35,0,0,0-1,2.64,2.71,2.71,0,0,0,1.17,2.48,6.32,6.32,0,0,0,3.3.74,9.91,9.91,0,0,0,4-.77,7.56,7.56,0,0,0,2.76-2.06V29.6Zm0,0a4.82,4.82,0,0,0-3.23.86,3.35,3.35,0,0,0-1,2.64,2.71,2.71,0,0,0,1.17,2.48,6.32,6.32,0,0,0,3.3.74,9.91,9.91,0,0,0,4-.77,7.56,7.56,0,0,0,2.76-2.06V29.6ZM75.79,22c-.85-.86-2.25-1.29-4.23-1.29-2.37,0-4,.51-4.9,1.56a7.46,7.46,0,0,0-1.32,4.82H77V25.6A4.8,4.8,0,0,0,75.79,22Zm0,0c-.85-.86-2.25-1.29-4.23-1.29-2.37,0-4,.51-4.9,1.56a7.46,7.46,0,0,0-1.32,4.82H77V25.6A4.8,4.8,0,0,0,75.79,22ZM94.48,29.6a4.82,4.82,0,0,0-3.23.86,3.35,3.35,0,0,0-1,2.64,2.71,2.71,0,0,0,1.17,2.48,6.32,6.32,0,0,0,3.3.74,9.91,9.91,0,0,0,4-.77,7.56,7.56,0,0,0,2.76-2.06V29.6Zm48.83-6.68c-1-1.09-2.64-1.67-5-1.67s-3.93.58-4.9,1.67S132,25.87,132,28.44s.51,4.39,1.48,5.51,2.6,1.71,4.9,1.71,4-.58,5-1.71,1.47-3,1.47-5.51S144.28,24.05,143.31,22.92Zm0,0c-1-1.09-2.64-1.67-5-1.67s-3.93.58-4.9,1.67S132,25.87,132,28.44s.51,4.39,1.48,5.51,2.6,1.71,4.9,1.71,4-.58,5-1.71,1.47-3,1.47-5.51S144.28,24.05,143.31,22.92ZM94.48,29.6a4.82,4.82,0,0,0-3.23.86,3.35,3.35,0,0,0-1,2.64,2.71,2.71,0,0,0,1.17,2.48,6.32,6.32,0,0,0,3.3.74,9.91,9.91,0,0,0,4-.77,7.56,7.56,0,0,0,2.76-2.06V29.6ZM75.79,22c-.85-.86-2.25-1.29-4.23-1.29-2.37,0-4,.51-4.9,1.56a7.46,7.46,0,0,0-1.32,4.82H77V25.6A4.8,4.8,0,0,0,75.79,22Zm0,0c-.85-.86-2.25-1.29-4.23-1.29-2.37,0-4,.51-4.9,1.56a7.46,7.46,0,0,0-1.32,4.82H77V25.6A4.8,4.8,0,0,0,75.79,22ZM94.48,29.6a4.82,4.82,0,0,0-3.23.86,3.35,3.35,0,0,0-1,2.64,2.71,2.71,0,0,0,1.17,2.48,6.32,6.32,0,0,0,3.3.74,9.91,9.91,0,0,0,4-.77,7.56,7.56,0,0,0,2.76-2.06V29.6Zm48.83-6.68c-1-1.09-2.64-1.67-5-1.67s-3.93.58-4.9,1.67S132,25.87,132,28.44s.51,4.39,1.48,5.51,2.6,1.71,4.9,1.71,4-.58,5-1.71,1.47-3,1.47-5.51S144.28,24.05,143.31,22.92Zm35.27-2.14a5.79,5.79,0,0,0-4.85,2.14,10.23,10.23,0,0,0-1.64,6.25c0,2.65.51,4.47,1.52,5.48a6.7,6.7,0,0,0,4.78,1.48,7.73,7.73,0,0,0,5.71-2.33v-11A8,8,0,0,0,178.58,20.78Zm0,0a5.79,5.79,0,0,0-4.85,2.14,10.23,10.23,0,0,0-1.64,6.25c0,2.65.51,4.47,1.52,5.48a6.7,6.7,0,0,0,4.78,1.48,7.73,7.73,0,0,0,5.71-2.33v-11A8,8,0,0,0,178.58,20.78Zm-35.27,2.14c-1-1.09-2.64-1.67-5-1.67s-3.93.58-4.9,1.67S132,25.87,132,28.44s.51,4.39,1.48,5.51,2.6,1.71,4.9,1.71,4-.58,5-1.71,1.47-3,1.47-5.51S144.28,24.05,143.31,22.92ZM94.48,29.6a4.82,4.82,0,0,0-3.23.86,3.35,3.35,0,0,0-1,2.64,2.71,2.71,0,0,0,1.17,2.48,6.32,6.32,0,0,0,3.3.74,9.91,9.91,0,0,0,4-.77,7.56,7.56,0,0,0,2.76-2.06V29.6ZM75.79,22c-.85-.86-2.25-1.29-4.23-1.29-2.37,0-4,.51-4.9,1.56a7.46,7.46,0,0,0-1.32,4.82H77V25.6A4.8,4.8,0,0,0,75.79,22Zm0,0c-.85-.86-2.25-1.29-4.23-1.29-2.37,0-4,.51-4.9,1.56a7.46,7.46,0,0,0-1.32,4.82H77V25.6A4.8,4.8,0,0,0,75.79,22ZM94.48,29.6a4.82,4.82,0,0,0-3.23.86,3.35,3.35,0,0,0-1,2.64,2.71,2.71,0,0,0,1.17,2.48,6.32,6.32,0,0,0,3.3.74,9.91,9.91,0,0,0,4-.77,7.56,7.56,0,0,0,2.76-2.06V29.6Zm48.83-6.68c-1-1.09-2.64-1.67-5-1.67s-3.93.58-4.9,1.67S132,25.87,132,28.44s.51,4.39,1.48,5.51,2.6,1.71,4.9,1.71,4-.58,5-1.71,1.47-3,1.47-5.51S144.28,24.05,143.31,22.92Zm35.27-2.14a5.79,5.79,0,0,0-4.85,2.14,10.23,10.23,0,0,0-1.64,6.25c0,2.65.51,4.47,1.52,5.48a6.7,6.7,0,0,0,4.78,1.48,7.73,7.73,0,0,0,5.71-2.33v-11A8,8,0,0,0,178.58,20.78Zm24.24,8.82a4.81,4.81,0,0,0-3.22.86,3.22,3.22,0,0,0-1,2.64,2.73,2.73,0,0,0,1.16,2.48,6.37,6.37,0,0,0,3.3.74,10.06,10.06,0,0,0,4-.77,7.6,7.6,0,0,0,2.75-2.06V29.6Zm0,0a4.81,4.81,0,0,0-3.22.86,3.22,3.22,0,0,0-1,2.64,2.73,2.73,0,0,0,1.16,2.48,6.37,6.37,0,0,0,3.3.74,10.06,10.06,0,0,0,4-.77,7.6,7.6,0,0,0,2.75-2.06V29.6Zm-24.24-8.82a5.79,5.79,0,0,0-4.85,2.14,10.23,10.23,0,0,0-1.64,6.25c0,2.65.51,4.47,1.52,5.48a6.7,6.7,0,0,0,4.78,1.48,7.73,7.73,0,0,0,5.71-2.33v-11A8,8,0,0,0,178.58,20.78Zm-35.27,2.14c-1-1.09-2.64-1.67-5-1.67s-3.93.58-4.9,1.67S132,25.87,132,28.44s.51,4.39,1.48,5.51,2.6,1.71,4.9,1.71,4-.58,5-1.71,1.47-3,1.47-5.51S144.28,24.05,143.31,22.92ZM94.48,29.6a4.82,4.82,0,0,0-3.23.86,3.35,3.35,0,0,0-1,2.64,2.71,2.71,0,0,0,1.17,2.48,6.32,6.32,0,0,0,3.3.74,9.91,9.91,0,0,0,4-.77,7.56,7.56,0,0,0,2.76-2.06V29.6ZM75.79,22c-.85-.86-2.25-1.29-4.23-1.29-2.37,0-4,.51-4.9,1.56a7.46,7.46,0,0,0-1.32,4.82H77V25.6A4.8,4.8,0,0,0,75.79,22ZM44.48,0V5.17L2.53,24.59,44.48,44v5.13h207V0Zm13,39.39a7.42,7.42,0,0,1-1.68.43,13.4,13.4,0,0,1-1.9.12,5.76,5.76,0,0,1-4.12-1.33c-.93-.89-1.4-2.33-1.4-4.39V8.08h5.09V33.76a2.5,2.5,0,0,0,.47,1.75,1.77,1.77,0,0,0,1.4.5,7.9,7.9,0,0,0,2.14-.31Zm24.08-8.93H65.34c.27,2.13,1,3.61,2.33,4.42s3.3,1.21,6,1.21a18.21,18.21,0,0,0,3.46-.35,14.84,14.84,0,0,0,3.07-.82v3.73a15.85,15.85,0,0,1-3.42,1,23.06,23.06,0,0,1-4.15.32c-3.85,0-6.84-.94-8.94-2.84s-3.18-4.78-3.18-8.7A12.4,12.4,0,0,1,63.2,20C65,18,67.75,16.94,71.4,16.94c3.38,0,5.91.85,7.58,2.6a9.42,9.42,0,0,1,2.56,6.8Zm24.79,9H102l-.31-2.22a9.17,9.17,0,0,1-3.34,2,14.16,14.16,0,0,1-5,.7,9.93,9.93,0,0,1-3.88-.74,6.08,6.08,0,0,1-3.93-6,6.38,6.38,0,0,1,2.18-5.09c1.43-1.29,3.65-1.95,6.68-1.95h7.07v-1a5.72,5.72,0,0,0-.47-2.52,3.13,3.13,0,0,0-1.78-1.36,13.35,13.35,0,0,0-3.77-.39,22.32,22.32,0,0,0-7.31,1.17V18.26a21.05,21.05,0,0,1,3.66-1,27.32,27.32,0,0,1,4.58-.35c3.26,0,5.71.62,7.42,1.94s2.53,3.42,2.53,6.37ZM125,20.78a26,26,0,0,0-2.8.7,26.79,26.79,0,0,0-2.87,1,14.06,14.06,0,0,0-2.29,1.09V39.47H112V17.4h4.66l.27,2.57a19.6,19.6,0,0,1,3.81-1.87A17.7,17.7,0,0,1,125,16.94ZM147.15,37c-1.86,2-4.77,3-8.81,3s-6.88-1-8.75-3-2.75-4.85-2.75-8.54.93-6.53,2.79-8.55,4.78-2.95,8.71-2.95,6.91,1,8.77,2.95,2.8,4.86,2.8,8.55S149,35,147.15,37Zm16.79,2.41a7.79,7.79,0,0,1-1.71.43,13.06,13.06,0,0,1-1.87.12,5.71,5.71,0,0,1-4.12-1.33c-.93-.89-1.39-2.33-1.39-4.39V8.08h5.08V33.76a2.5,2.5,0,0,0,.47,1.75,1.77,1.77,0,0,0,1.4.5,7.85,7.85,0,0,0,2.14-.31Zm25.21.08h-4.31l-.35-2.18a10,10,0,0,1-3.27,2,12.12,12.12,0,0,1-4.19.63,12.58,12.58,0,0,1-5.25-1,7.23,7.23,0,0,1-3.53-3.42A13.28,13.28,0,0,1,167,29.14a15,15,0,0,1,1.36-6.69,9.23,9.23,0,0,1,3.76-4.11,10.4,10.4,0,0,1,5.4-1.4,12.54,12.54,0,0,1,3.58.46,10.77,10.77,0,0,1,3,1.44V8.08h5.05Zm25.52,0h-4.35L210,37.25a9.26,9.26,0,0,1-3.34,2,14.3,14.3,0,0,1-5,.7,10,10,0,0,1-3.89-.74,6.08,6.08,0,0,1-3.92-6A6.51,6.51,0,0,1,196,28.09c1.48-1.29,3.69-1.95,6.72-1.95h7.07v-1a5.18,5.18,0,0,0-.5-2.52,2.9,2.9,0,0,0-1.75-1.36,13.31,13.31,0,0,0-3.77-.39,22.21,22.21,0,0,0-7.3,1.17V18.26a20.4,20.4,0,0,1,3.61-1,28.27,28.27,0,0,1,4.63-.35c3.22,0,5.71.62,7.38,1.94s2.56,3.42,2.56,6.37Zm26.88,0h-5V25.41c0-1.71-.35-2.92-1-3.58s-2-1-4-1a8.9,8.9,0,0,0-3.38.7,8.81,8.81,0,0,0-2.76,1.83V39.47H220.3V17.4H225l.24,2.33a14.6,14.6,0,0,1,3.57-2,12.46,12.46,0,0,1,4.59-.81c2.87,0,4.93.66,6.25,2s1.94,3.42,1.94,6.25Zm9,0h-4.27v-4h4.27Zm-51-9a3.22,3.22,0,0,0-1,2.64,2.73,2.73,0,0,0,1.16,2.48,6.37,6.37,0,0,0,3.3.74,10.06,10.06,0,0,0,4-.77,7.6,7.6,0,0,0,2.75-2.06V29.6h-7A4.81,4.81,0,0,0,199.6,30.46Zm-25.87-7.54a10.23,10.23,0,0,0-1.64,6.25c0,2.65.51,4.47,1.52,5.48a6.7,6.7,0,0,0,4.78,1.48,7.73,7.73,0,0,0,5.71-2.33v-11a8,8,0,0,0-5.52-2A5.79,5.79,0,0,0,173.73,22.92Zm-35.39-1.67c-2.3,0-3.93.58-4.9,1.67S132,25.87,132,28.44s.51,4.39,1.48,5.51,2.6,1.71,4.9,1.71,4-.58,5-1.71,1.47-3,1.47-5.51-.5-4.39-1.47-5.52S140.67,21.25,138.34,21.25ZM91.25,30.46a3.35,3.35,0,0,0-1,2.64,2.71,2.71,0,0,0,1.17,2.48,6.32,6.32,0,0,0,3.3.74,9.91,9.91,0,0,0,4-.77,7.56,7.56,0,0,0,2.76-2.06V29.6h-7A4.82,4.82,0,0,0,91.25,30.46ZM71.56,20.74c-2.37,0-4,.51-4.9,1.56a7.46,7.46,0,0,0-1.32,4.82H77V25.6A4.8,4.8,0,0,0,75.79,22C74.94,21.17,73.54,20.74,71.56,20.74ZM75.79,22c-.85-.86-2.25-1.29-4.23-1.29-2.37,0-4,.51-4.9,1.56a7.46,7.46,0,0,0-1.32,4.82H77V25.6A4.8,4.8,0,0,0,75.79,22ZM94.48,29.6a4.82,4.82,0,0,0-3.23.86,3.35,3.35,0,0,0-1,2.64,2.71,2.71,0,0,0,1.17,2.48,6.32,6.32,0,0,0,3.3.74,9.91,9.91,0,0,0,4-.77,7.56,7.56,0,0,0,2.76-2.06V29.6Zm48.83-6.68c-1-1.09-2.64-1.67-5-1.67s-3.93.58-4.9,1.67S132,25.87,132,28.44s.51,4.39,1.48,5.51,2.6,1.71,4.9,1.71,4-.58,5-1.71,1.47-3,1.47-5.51S144.28,24.05,143.31,22.92Zm35.27-2.14a5.79,5.79,0,0,0-4.85,2.14,10.23,10.23,0,0,0-1.64,6.25c0,2.65.51,4.47,1.52,5.48a6.7,6.7,0,0,0,4.78,1.48,7.73,7.73,0,0,0,5.71-2.33v-11A8,8,0,0,0,178.58,20.78Zm24.24,8.82a4.81,4.81,0,0,0-3.22.86,3.22,3.22,0,0,0-1,2.64,2.73,2.73,0,0,0,1.16,2.48,6.37,6.37,0,0,0,3.3.74,10.06,10.06,0,0,0,4-.77,7.6,7.6,0,0,0,2.75-2.06V29.6Zm0,0a4.81,4.81,0,0,0-3.22.86,3.22,3.22,0,0,0-1,2.64,2.73,2.73,0,0,0,1.16,2.48,6.37,6.37,0,0,0,3.3.74,10.06,10.06,0,0,0,4-.77,7.6,7.6,0,0,0,2.75-2.06V29.6Zm-24.24-8.82a5.79,5.79,0,0,0-4.85,2.14,10.23,10.23,0,0,0-1.64,6.25c0,2.65.51,4.47,1.52,5.48a6.7,6.7,0,0,0,4.78,1.48,7.73,7.73,0,0,0,5.71-2.33v-11A8,8,0,0,0,178.58,20.78Zm-35.27,2.14c-1-1.09-2.64-1.67-5-1.67s-3.93.58-4.9,1.67S132,25.87,132,28.44s.51,4.39,1.48,5.51,2.6,1.71,4.9,1.71,4-.58,5-1.71,1.47-3,1.47-5.51S144.28,24.05,143.31,22.92ZM94.48,29.6a4.82,4.82,0,0,0-3.23.86,3.35,3.35,0,0,0-1,2.64,2.71,2.71,0,0,0,1.17,2.48,6.32,6.32,0,0,0,3.3.74,9.91,9.91,0,0,0,4-.77,7.56,7.56,0,0,0,2.76-2.06V29.6ZM75.79,22c-.85-.86-2.25-1.29-4.23-1.29-2.37,0-4,.51-4.9,1.56a7.46,7.46,0,0,0-1.32,4.82H77V25.6A4.8,4.8,0,0,0,75.79,22Zm0,0c-.85-.86-2.25-1.29-4.23-1.29-2.37,0-4,.51-4.9,1.56a7.46,7.46,0,0,0-1.32,4.82H77V25.6A4.8,4.8,0,0,0,75.79,22ZM94.48,29.6a4.82,4.82,0,0,0-3.23.86,3.35,3.35,0,0,0-1,2.64,2.71,2.71,0,0,0,1.17,2.48,6.32,6.32,0,0,0,3.3.74,9.91,9.91,0,0,0,4-.77,7.56,7.56,0,0,0,2.76-2.06V29.6Zm48.83-6.68c-1-1.09-2.64-1.67-5-1.67s-3.93.58-4.9,1.67S132,25.87,132,28.44s.51,4.39,1.48,5.51,2.6,1.71,4.9,1.71,4-.58,5-1.71,1.47-3,1.47-5.51S144.28,24.05,143.31,22.92Zm0,0c-1-1.09-2.64-1.67-5-1.67s-3.93.58-4.9,1.67S132,25.87,132,28.44s.51,4.39,1.48,5.51,2.6,1.71,4.9,1.71,4-.58,5-1.71,1.47-3,1.47-5.51S144.28,24.05,143.31,22.92ZM94.48,29.6a4.82,4.82,0,0,0-3.23.86,3.35,3.35,0,0,0-1,2.64,2.71,2.71,0,0,0,1.17,2.48,6.32,6.32,0,0,0,3.3.74,9.91,9.91,0,0,0,4-.77,7.56,7.56,0,0,0,2.76-2.06V29.6ZM75.79,22c-.85-.86-2.25-1.29-4.23-1.29-2.37,0-4,.51-4.9,1.56a7.46,7.46,0,0,0-1.32,4.82H77V25.6A4.8,4.8,0,0,0,75.79,22Zm0,0c-.85-.86-2.25-1.29-4.23-1.29-2.37,0-4,.51-4.9,1.56a7.46,7.46,0,0,0-1.32,4.82H77V25.6A4.8,4.8,0,0,0,75.79,22ZM94.48,29.6a4.82,4.82,0,0,0-3.23.86,3.35,3.35,0,0,0-1,2.64,2.71,2.71,0,0,0,1.17,2.48,6.32,6.32,0,0,0,3.3.74,9.91,9.91,0,0,0,4-.77,7.56,7.56,0,0,0,2.76-2.06V29.6Zm0,0a4.82,4.82,0,0,0-3.23.86,3.35,3.35,0,0,0-1,2.64,2.71,2.71,0,0,0,1.17,2.48,6.32,6.32,0,0,0,3.3.74,9.91,9.91,0,0,0,4-.77,7.56,7.56,0,0,0,2.76-2.06V29.6ZM75.79,22c-.85-.86-2.25-1.29-4.23-1.29-2.37,0-4,.51-4.9,1.56a7.46,7.46,0,0,0-1.32,4.82H77V25.6A4.8,4.8,0,0,0,75.79,22Zm0,0c-.85-.86-2.25-1.29-4.23-1.29-2.37,0-4,.51-4.9,1.56a7.46,7.46,0,0,0-1.32,4.82H77V25.6A4.8,4.8,0,0,0,75.79,22Zm0,0c-.85-.86-2.25-1.29-4.23-1.29-2.37,0-4,.51-4.9,1.56a7.46,7.46,0,0,0-1.32,4.82H77V25.6A4.8,4.8,0,0,0,75.79,22Z"/>
        <g>
          <path class="cls-1" d="M262.68,40.42a12.8,12.8,0,0,1-5.27-1A7.38,7.38,0,0,1,253.86,36a13.82,13.82,0,0,1-1.25-6.39A14.92,14.92,0,0,1,254,22.92a9.49,9.49,0,0,1,3.75-4.13,10.61,10.61,0,0,1,5.43-1.4,12.5,12.5,0,0,1,3.57.47,10.88,10.88,0,0,1,3,1.44V8.53h5.09V40h-4.34l-.33-2.19a10,10,0,0,1-3.26,2A12.25,12.25,0,0,1,262.68,40.42ZM264,36.6a7.63,7.63,0,0,0,5.68-2.33V23.22a7.92,7.92,0,0,0-5.5-2,5.67,5.67,0,0,0-4.84,2.15,10.16,10.16,0,0,0-1.64,6.24q0,4,1.52,5.45T264,36.6Z"/>
          <path class="cls-1" d="M291.39,40.42c-3.85,0-6.84-1-8.95-2.84s-3.17-4.8-3.17-8.72q0-5.31,2.7-8.39c1.81-2,4.54-3.08,8.21-3.08,3.35,0,5.88.88,7.57,2.63a9.36,9.36,0,0,1,2.55,6.79v4.1H284.12c.25,2.15,1,3.62,2.33,4.43a11.57,11.57,0,0,0,6,1.21,19,19,0,0,0,3.45-.33,16.31,16.31,0,0,0,3.07-.83v3.72a13.92,13.92,0,0,1-3.42,1A24.6,24.6,0,0,1,291.39,40.42ZM284.12,27.6h11.7V26.06a4.89,4.89,0,0,0-1.26-3.57c-.84-.85-2.25-1.28-4.24-1.28-2.36,0-4,.52-4.87,1.54S284.12,25.39,284.12,27.6Z"/>
          <path class="cls-1" d="M310.46,40l-8.72-22.09H307L313.21,35l6.2-17.15h5.22L316,40Z"/>
        </g>
        <path class="cls-1" d="M324.19,0l44.48,20.29V29l-44.48,20.2V44l42-19.41-42-19.41Z"/>
      </g>
    </g>
  </g>
</svg>
